<svg width="14" height="9" viewBox="0 0 14 9" fill="none" xmlns="http://www.w3.org/2000/svg">
<path fill-rule="evenodd" clip-rule="evenodd" d="M0 0.00683594H13.9945V8.99981H0V0.00683594Z" fill="#231E60"/>
<path d="M0 0.00683594V1.01152L12.4311 8.99981H13.9945V7.99513L1.56345 0.00683594H0ZM13.9945 0.00683594V1.01152L1.56345 8.99981H0V7.99513L12.4311 0.00683594H13.9945Z" fill="white"/>
<path d="M5.83288 0.00683594V8.99981H8.16712V0.00683594H5.83288ZM0 2.99981V5.99981H13.9945V2.99981H0Z" fill="white"/>
<path d="M0 3.60403V5.40262H13.9945V3.60403H0ZM6.29754 0.00683594V8.99981H7.69699V0.00683594H6.29754Z" fill="#BA2025"/>
<path d="M0 9L4.66302 6H5.70715L1.04412 9H0ZM0 0.00702565L4.66302 3.00703H3.62437L0 0.674473V0.00702565ZM8.28739 3L12.9504 0H13.9945L9.33151 3H8.28739ZM13.9945 9L9.33151 6H10.3756L14 8.32553V9H13.9945Z" fill="#BA2025"/>
</svg>
