<svg width="27" height="27" viewBox="0 0 27 27" fill="none" xmlns="http://www.w3.org/2000/svg">
<circle cx="13.4086" cy="13.4077" r="12.4077" stroke="#D72130" stroke-width="2"/>
<path d="M17.0449 13.4077C17.0449 17.0319 16.5504 20.2714 15.7789 22.5701C15.3914 23.7246 14.9522 24.5869 14.5132 25.1401C14.0659 25.7038 13.7315 25.8153 13.5449 25.8153C13.3584 25.8153 13.024 25.7038 12.5767 25.1401C12.1377 24.5869 11.6985 23.7246 11.311 22.5701C10.5395 20.2714 10.0449 17.0319 10.0449 13.4077C10.0449 9.78339 10.5395 6.54391 11.311 4.2452C11.6985 3.0907 12.1377 2.22845 12.5767 1.67523C13.024 1.1115 13.3584 1 13.5449 1C13.7315 1 14.0659 1.1115 14.5132 1.67523C14.9522 2.22845 15.3914 3.0907 15.7789 4.2452C16.5504 6.54391 17.0449 9.78339 17.0449 13.4077Z" stroke="#D72130" stroke-width="2"/>
<path d="M-0.000465445 13.8546L26.368 13.8546" stroke="#D72130" stroke-width="2"/>
</svg>
