<svg width="68" height="17" viewBox="0 0 68 17" fill="none" xmlns="http://www.w3.org/2000/svg">
<path fill-rule="evenodd" clip-rule="evenodd" d="M5.62308 9.00003C5.62308 10.0346 6.46367 10.875 7.49847 10.875C8.53323 10.875 9.37386 10.0346 9.37386 9.00003V8.98445C9.17367 9.18756 8.89893 9.31255 8.5924 9.31255C7.98902 9.31255 7.49847 8.82193 7.49847 8.2188C7.49847 7.78452 7.75453 7.40628 8.12047 7.23124C7.92675 7.16255 7.71734 7.12506 7.49847 7.12506C6.46367 7.12502 5.62308 7.96558 5.62308 9.00003ZM14.5812 7.93432C13.4183 6.45633 10.5866 4 7.5015 4C4.41345 4 1.57867 6.45637 0.415687 7.93432C0.153195 8.27188 0.00942632 8.6375 0 9.00003C0.00946073 9.3626 0.153195 9.72823 0.415687 10.0657C1.5787 11.544 4.41035 14 7.49847 14C10.5866 14 13.4183 11.544 14.5812 10.0657C14.8467 9.72819 14.9905 9.3626 15 9.00003C14.9905 8.6375 14.8467 8.27188 14.5812 7.93432ZM7.49847 12.125C5.77328 12.125 4.37282 10.725 4.37282 9.00003C4.37282 7.27506 5.77328 5.87501 7.49847 5.87501C9.22362 5.87501 10.6241 7.27506 10.6241 9.00003C10.6241 10.7249 9.22359 12.125 7.49847 12.125Z" fill="#D72130"/>
<path d="M28.3256 7.02344C28.3256 7.91797 28.0326 8.60352 27.4467 9.08008C26.8608 9.55664 26.0268 9.79492 24.9448 9.79492H24.0541V13H22.6537V4.43359H25.1205C26.1909 4.43359 26.9916 4.65234 27.5229 5.08984C28.058 5.52734 28.3256 6.17188 28.3256 7.02344ZM24.0541 8.61719H24.7983C25.517 8.61719 26.0444 8.49219 26.3803 8.24219C26.7162 7.99219 26.8842 7.60156 26.8842 7.07031C26.8842 6.57812 26.7338 6.21094 26.433 5.96875C26.1323 5.72656 25.6635 5.60547 25.0268 5.60547H24.0541V8.61719ZM33.1772 6.40234C33.4545 6.40234 33.683 6.42188 33.8627 6.46094L33.728 7.74414C33.5326 7.69727 33.3295 7.67383 33.1186 7.67383C32.5678 7.67383 32.1205 7.85352 31.7768 8.21289C31.4369 8.57227 31.267 9.03906 31.267 9.61328V13H29.8901V6.51953H30.9682L31.1498 7.66211H31.2201C31.435 7.27539 31.7143 6.96875 32.058 6.74219C32.4057 6.51562 32.7787 6.40234 33.1772 6.40234ZM37.8998 13.1172C36.892 13.1172 36.103 12.8242 35.5326 12.2383C34.9662 11.6484 34.683 10.8379 34.683 9.80664C34.683 8.74805 34.9467 7.91602 35.4741 7.31055C36.0014 6.70508 36.726 6.40234 37.6479 6.40234C38.5034 6.40234 39.1791 6.66211 39.6752 7.18164C40.1713 7.70117 40.4194 8.41602 40.4194 9.32617V10.0703H36.101C36.1205 10.6992 36.2905 11.1836 36.6108 11.5234C36.9311 11.8594 37.3823 12.0273 37.9643 12.0273C38.3471 12.0273 38.7026 11.9922 39.0307 11.9219C39.3627 11.8477 39.7182 11.7266 40.0971 11.5586V12.6777C39.7612 12.8379 39.4213 12.9512 39.0776 13.0176C38.7338 13.084 38.3412 13.1172 37.8998 13.1172ZM37.6479 7.44531C37.2104 7.44531 36.8588 7.58398 36.5932 7.86133C36.3315 8.13867 36.1752 8.54297 36.1244 9.07422H39.0659C39.058 8.53906 38.9291 8.13477 38.6791 7.86133C38.4291 7.58398 38.0854 7.44531 37.6479 7.44531ZM43.4604 13L40.9994 6.51953H42.4526L43.7709 10.2871C43.9975 10.9199 44.1342 11.4316 44.1811 11.8223H44.228C44.2631 11.541 44.3998 11.0293 44.6381 10.2871L45.9565 6.51953H47.4213L44.9487 13H43.4604ZM49.7826 13H48.4057V6.51953H49.7826V13ZM48.3237 4.80273C48.3237 4.55664 48.3901 4.36719 48.5229 4.23438C48.6596 4.10156 48.853 4.03516 49.103 4.03516C49.3451 4.03516 49.5326 4.10156 49.6655 4.23438C49.8022 4.36719 49.8705 4.55664 49.8705 4.80273C49.8705 5.03711 49.8022 5.22266 49.6655 5.35938C49.5326 5.49219 49.3451 5.55859 49.103 5.55859C48.853 5.55859 48.6596 5.49219 48.5229 5.35938C48.3901 5.22266 48.3237 5.03711 48.3237 4.80273ZM54.5873 13.1172C53.5795 13.1172 52.7905 12.8242 52.2201 12.2383C51.6537 11.6484 51.3705 10.8379 51.3705 9.80664C51.3705 8.74805 51.6342 7.91602 52.1616 7.31055C52.6889 6.70508 53.4135 6.40234 54.3354 6.40234C55.1909 6.40234 55.8666 6.66211 56.3627 7.18164C56.8588 7.70117 57.1069 8.41602 57.1069 9.32617V10.0703H52.7885C52.808 10.6992 52.978 11.1836 53.2983 11.5234C53.6186 11.8594 54.0698 12.0273 54.6518 12.0273C55.0346 12.0273 55.3901 11.9922 55.7182 11.9219C56.0502 11.8477 56.4057 11.7266 56.7846 11.5586V12.6777C56.4487 12.8379 56.1088 12.9512 55.7651 13.0176C55.4213 13.084 55.0287 13.1172 54.5873 13.1172ZM54.3354 7.44531C53.8979 7.44531 53.5463 7.58398 53.2807 7.86133C53.019 8.13867 52.8627 8.54297 52.8119 9.07422H55.7534C55.7455 8.53906 55.6166 8.13477 55.3666 7.86133C55.1166 7.58398 54.7729 7.44531 54.3354 7.44531ZM63.9858 13L63.1479 9.97656C63.0463 9.65625 62.8627 8.91211 62.5971 7.74414H62.5444C62.3178 8.79883 62.1381 9.54688 62.0053 9.98828L61.144 13H59.6205L57.8041 6.51953H59.2104L60.0366 9.71289C60.2241 10.502 60.3569 11.1777 60.435 11.7402H60.4701C60.5092 11.4551 60.5678 11.1289 60.6459 10.7617C60.728 10.3906 60.7983 10.1133 60.8569 9.92969L61.8412 6.51953H63.353L64.308 9.92969C64.3666 10.1211 64.4389 10.4141 64.5248 10.8086C64.6147 11.2031 64.6674 11.5098 64.683 11.7285H64.7299C64.7885 11.248 64.9252 10.5762 65.1401 9.71289L65.978 6.51953H67.3608L65.5326 13H63.9858Z" fill="#D72130"/>
</svg>
