<svg width="27" height="28" viewBox="0 0 27 28" fill="none" xmlns="http://www.w3.org/2000/svg">
<path fill-rule="evenodd" clip-rule="evenodd" d="M20.5254 4.48389L21.3729 6.05789L5.4192 14.6484L20.0256 22.3573L19.1912 23.9383L1.61914 14.6642L20.5254 4.48389Z" fill="#B2B2B2"/>
<path fill-rule="evenodd" clip-rule="evenodd" d="M22.7365 6.16482C23.7238 6.16482 24.5242 5.36445 24.5242 4.37713C24.5242 3.38982 23.7238 2.58945 22.7365 2.58945C21.7492 2.58945 20.9488 3.38982 20.9488 4.37713C20.9488 5.36445 21.7492 6.16482 22.7365 6.16482ZM22.7365 7.95251C24.7111 7.95251 26.3119 6.35176 26.3119 4.37713C26.3119 2.40251 24.7111 0.801758 22.7365 0.801758C20.7619 0.801758 19.1611 2.40251 19.1611 4.37713C19.1611 6.35176 20.7619 7.95251 22.7365 7.95251Z" fill="#B2B2B2"/>
<path fill-rule="evenodd" clip-rule="evenodd" d="M21.843 25.8294C22.8303 25.8294 23.6306 25.029 23.6306 24.0417C23.6306 23.0544 22.8303 22.254 21.843 22.254C20.8556 22.254 20.0553 23.0544 20.0553 24.0417C20.0553 25.029 20.8556 25.8294 21.843 25.8294ZM21.843 27.6171C23.8176 27.6171 25.4183 26.0163 25.4183 24.0417C25.4183 22.0671 23.8176 20.4663 21.843 20.4663C19.8683 20.4663 18.2676 22.0671 18.2676 24.0417C18.2676 26.0163 19.8683 27.6171 21.843 27.6171Z" fill="#B2B2B2"/>
<path fill-rule="evenodd" clip-rule="evenodd" d="M3.966 15.9971C4.95332 15.9971 5.75369 15.1967 5.75369 14.2094C5.75369 13.2221 4.95332 12.4217 3.966 12.4217C2.97869 12.4217 2.17831 13.2221 2.17831 14.2094C2.17831 15.1967 2.97869 15.9971 3.966 15.9971ZM3.966 17.7848C5.94063 17.7848 7.54138 16.184 7.54138 14.2094C7.54138 12.2348 5.94063 10.634 3.966 10.634C1.99138 10.634 0.390625 12.2348 0.390625 14.2094C0.390625 16.184 1.99138 17.7848 3.966 17.7848Z" fill="#B2B2B2"/>
<circle cx="3.9664" cy="14.2093" r="1.78769" fill="white"/>
</svg>
