<svg style="width: 100%;" height="42" viewBox="0 0 813 42" fill="none" xmlns="http://www.w3.org/2000/svg">
                <path fill-rule="evenodd" clip-rule="evenodd" d="M1.49328 21.5H811.507H1.49328Z" fill="#D8D8D8" />
                <rect x="317.551" y="0.5" width="175.911" height="41" rx="20.5" fill="white" stroke="#B2B2B2" />
                <path d="M362.039 16.0059H365.15C366.567 16.0059 367.595 16.2087 368.233 16.6143C368.875 17.0153 369.197 17.6556 369.197 18.5352C369.197 19.1322 369.055 19.6221 368.773 20.0049C368.495 20.3877 368.123 20.6178 367.658 20.6953V20.7637C368.292 20.9049 368.748 21.1693 369.026 21.5566C369.308 21.944 369.449 22.459 369.449 23.1016C369.449 24.013 369.119 24.724 368.458 25.2344C367.802 25.7448 366.909 26 365.779 26H362.039V16.0059ZM364.158 19.9639H365.389C365.963 19.9639 366.378 19.875 366.633 19.6973C366.893 19.5195 367.023 19.2256 367.023 18.8154C367.023 18.4326 366.881 18.1592 366.599 17.9951C366.321 17.8265 365.879 17.7422 365.273 17.7422H364.158V19.9639ZM364.158 21.6455V24.25H365.539C366.123 24.25 366.553 24.1383 366.831 23.915C367.109 23.6917 367.248 23.3499 367.248 22.8896C367.248 22.0602 366.656 21.6455 365.471 21.6455H364.158ZM373.565 20.4424H374.248C374.918 20.4424 375.413 20.3307 375.732 20.1074C376.051 19.8841 376.21 19.5332 376.21 19.0547C376.21 18.5807 376.046 18.2435 375.718 18.043C375.394 17.8424 374.891 17.7422 374.207 17.7422H373.565V20.4424ZM373.565 22.165V26H371.446V16.0059H374.358C375.716 16.0059 376.721 16.2542 377.372 16.751C378.024 17.2432 378.35 17.9928 378.35 19C378.35 19.5879 378.188 20.112 377.865 20.5723C377.541 21.028 377.083 21.3857 376.49 21.6455C377.994 23.8923 378.974 25.3438 379.43 26H377.078L374.693 22.165H373.565ZM386.444 26H380.688V16.0059H386.444V17.7422H382.807V19.9365H386.191V21.6729H382.807V24.25H386.444V26ZM394.654 26L393.929 23.6211H390.285L389.561 26H387.278L390.805 15.9648H393.396L396.937 26H394.654ZM393.423 21.8438C392.753 19.6882 392.375 18.4691 392.288 18.1865C392.206 17.904 392.147 17.6807 392.111 17.5166C391.96 18.0999 391.53 19.5423 390.819 21.8438H393.423ZM406.24 26H403.834L401.216 21.7891L400.321 22.4316V26H398.201V16.0059H400.321V20.5791L401.155 19.4033L403.862 16.0059H406.213L402.727 20.4287L406.24 26ZM415.79 20.9072C415.79 22.5524 415.321 23.8125 414.382 24.6875C413.448 25.5625 412.097 26 410.328 26H407.498V16.0059H410.636C412.267 16.0059 413.534 16.4365 414.437 17.2979C415.339 18.1592 415.79 19.3623 415.79 20.9072ZM413.589 20.9619C413.589 18.8154 412.641 17.7422 410.745 17.7422H409.617V24.25H410.527C412.568 24.25 413.589 23.154 413.589 20.9619ZM426.933 20.9893C426.933 22.6436 426.523 23.915 425.702 24.8037C424.882 25.6924 423.706 26.1367 422.175 26.1367C420.644 26.1367 419.468 25.6924 418.648 24.8037C417.827 23.915 417.417 22.639 417.417 20.9756C417.417 19.3122 417.827 18.043 418.648 17.168C419.473 16.2884 420.653 15.8486 422.189 15.8486C423.725 15.8486 424.898 16.2907 425.709 17.1748C426.525 18.0589 426.933 19.3304 426.933 20.9893ZM419.639 20.9893C419.639 22.1058 419.851 22.9466 420.275 23.5117C420.698 24.0768 421.332 24.3594 422.175 24.3594C423.866 24.3594 424.711 23.236 424.711 20.9893C424.711 18.738 423.87 17.6123 422.189 17.6123C421.346 17.6123 420.71 17.8971 420.281 18.4668C419.853 19.0319 419.639 19.8727 419.639 20.9893ZM438.739 26H436.325L434.972 20.75C434.922 20.5632 434.835 20.1781 434.712 19.5947C434.594 19.0068 434.525 18.6126 434.507 18.4121C434.48 18.6582 434.411 19.0547 434.302 19.6016C434.193 20.1439 434.108 20.5312 434.049 20.7637L432.702 26H430.296L427.746 16.0059H429.831L431.11 21.4609C431.333 22.4681 431.495 23.3408 431.595 24.0791C431.622 23.8193 431.684 23.4183 431.78 22.876C431.88 22.3291 431.973 21.9053 432.06 21.6045L433.516 16.0059H435.519L436.975 21.6045C437.039 21.8551 437.118 22.238 437.214 22.7529C437.31 23.2679 437.383 23.71 437.433 24.0791C437.478 23.7236 437.551 23.2816 437.652 22.7529C437.752 22.2197 437.843 21.7891 437.925 21.4609L439.197 16.0059H441.281L438.739 26ZM451.406 26H448.712L444.365 18.4395H444.303C444.39 19.7747 444.433 20.7272 444.433 21.2969V26H442.539V16.0059H445.212L449.553 23.4912H449.601C449.532 22.1924 449.498 21.2741 449.498 20.7363V16.0059H451.406V26Z" fill="black" />
            </svg>