<svg width="16" height="15" viewBox="0 0 16 15" fill="none" xmlns="http://www.w3.org/2000/svg">
                    <path fill-rule="evenodd" clip-rule="evenodd" d="M3.62149 7.50011C3.62149 7.01296 3.70235 6.54585 3.84684 6.10781L1.31911 4.17761C0.82645 5.17781 0.54895 6.30492 0.54895 7.50011C0.54895 8.69437 0.826216 9.82066 1.31805 10.8203L3.84438 8.88632C3.70129 8.45027 3.62149 7.98492 3.62149 7.50011Z" fill="black" />
                    <path fill-rule="evenodd" clip-rule="evenodd" d="M8.05972 3.0682C9.11804 3.0682 10.0739 3.4432 10.825 4.0568L13.0098 1.875C11.6785 0.715898 9.97152 0 8.05972 0C5.0916 0 2.54066 1.69734 1.31921 4.1775L3.84683 6.1077C4.42925 4.3398 6.08945 3.0682 8.05972 3.0682Z" fill="black" />
                    <path fill-rule="evenodd" clip-rule="evenodd" d="M8.05972 11.9319C6.08957 11.9319 4.42937 10.6603 3.84695 8.89246L1.31921 10.8223C2.54066 13.3028 5.0916 15.0002 8.05972 15.0002C9.8916 15.0002 11.6406 14.3496 12.9532 13.1309L10.5539 11.2761C9.87695 11.7025 9.02441 11.9319 8.05972 11.9319Z" fill="black" />
                    <path fill-rule="evenodd" clip-rule="evenodd" d="M15.2288 7.49982C15.2288 7.05662 15.1604 6.57932 15.058 6.13623H8.05957V9.03393H12.088C11.8866 10.0219 11.3384 10.7814 10.5538 11.2757L12.9531 13.1306C14.3319 11.8509 15.2288 9.94447 15.2288 7.49982Z" fill="black" />
                </svg>