<svg style="width:100%" width="814" height="42" viewBox="0 0 814 42" fill="none" xmlns="http://www.w3.org/2000/svg">
                <path fill-rule="evenodd" clip-rule="evenodd" d="M1.49755 21.5H812.502H1.49755Z" fill="#D8D8D8" />
                <rect x="318.721" y="0.5" width="176.564" height="41" rx="20.5" fill="white" stroke="#B2B2B2" />
                <path d="M344.377 20.709H345.074C345.726 20.709 346.214 20.5814 346.537 20.3262C346.861 20.0664 347.022 19.6904 347.022 19.1982C347.022 18.7015 346.886 18.3346 346.612 18.0977C346.343 17.8607 345.92 17.7422 345.341 17.7422H344.377V20.709ZM349.162 19.123C349.162 20.1986 348.825 21.0212 348.15 21.5908C347.48 22.1605 346.526 22.4453 345.286 22.4453H344.377V26H342.258V16.0059H345.45C346.662 16.0059 347.583 16.2679 348.212 16.792C348.845 17.3115 349.162 18.0885 349.162 19.123ZM359.238 26H357.126V21.6865H353.168V26H351.049V16.0059H353.168V19.9229H357.126V16.0059H359.238V26ZM370.839 20.9893C370.839 22.6436 370.429 23.915 369.608 24.8037C368.788 25.6924 367.612 26.1367 366.081 26.1367C364.55 26.1367 363.374 25.6924 362.554 24.8037C361.733 23.915 361.323 22.639 361.323 20.9756C361.323 19.3122 361.733 18.043 362.554 17.168C363.379 16.2884 364.559 15.8486 366.095 15.8486C367.631 15.8486 368.804 16.2907 369.615 17.1748C370.431 18.0589 370.839 19.3304 370.839 20.9893ZM363.545 20.9893C363.545 22.1058 363.757 22.9466 364.181 23.5117C364.604 24.0768 365.238 24.3594 366.081 24.3594C367.772 24.3594 368.617 23.236 368.617 20.9893C368.617 18.738 367.776 17.6123 366.095 17.6123C365.252 17.6123 364.616 17.8971 364.188 18.4668C363.759 19.0319 363.545 19.8727 363.545 20.9893ZM376.766 26H374.646V17.7695H371.933V16.0059H379.479V17.7695H376.766V26ZM390.089 20.9893C390.089 22.6436 389.679 23.915 388.858 24.8037C388.038 25.6924 386.862 26.1367 385.331 26.1367C383.8 26.1367 382.624 25.6924 381.804 24.8037C380.983 23.915 380.573 22.639 380.573 20.9756C380.573 19.3122 380.983 18.043 381.804 17.168C382.629 16.2884 383.809 15.8486 385.345 15.8486C386.881 15.8486 388.054 16.2907 388.865 17.1748C389.681 18.0589 390.089 19.3304 390.089 20.9893ZM382.795 20.9893C382.795 22.1058 383.007 22.9466 383.431 23.5117C383.854 24.0768 384.488 24.3594 385.331 24.3594C387.022 24.3594 387.867 23.236 387.867 20.9893C387.867 18.738 387.026 17.6123 385.345 17.6123C384.502 17.6123 383.866 17.8971 383.438 18.4668C383.009 19.0319 382.795 19.8727 382.795 20.9893ZM404.868 20.9893C404.868 22.6436 404.458 23.915 403.638 24.8037C402.817 25.6924 401.642 26.1367 400.11 26.1367C398.579 26.1367 397.403 25.6924 396.583 24.8037C395.763 23.915 395.353 22.639 395.353 20.9756C395.353 19.3122 395.763 18.043 396.583 17.168C397.408 16.2884 398.588 15.8486 400.124 15.8486C401.66 15.8486 402.833 16.2907 403.645 17.1748C404.46 18.0589 404.868 19.3304 404.868 20.9893ZM397.574 20.9893C397.574 22.1058 397.786 22.9466 398.21 23.5117C398.634 24.0768 399.267 24.3594 400.11 24.3594C401.801 24.3594 402.646 23.236 402.646 20.9893C402.646 18.738 401.806 17.6123 400.124 17.6123C399.281 17.6123 398.645 17.8971 398.217 18.4668C397.788 19.0319 397.574 19.8727 397.574 20.9893ZM409.024 26H406.939V16.0059H412.668V17.7422H409.024V20.3193H412.415V22.0488H409.024V26ZM422.115 26H419.996V17.7695H417.282V16.0059H424.829V17.7695H422.115V26ZM434.557 26H432.444V21.6865H428.486V26H426.367V16.0059H428.486V19.9229H432.444V16.0059H434.557V26ZM442.842 26H437.086V16.0059H442.842V17.7422H439.205V19.9365H442.589V21.6729H439.205V24.25H442.842V26ZM456.862 20.9072C456.862 22.5524 456.393 23.8125 455.454 24.6875C454.52 25.5625 453.169 26 451.4 26H448.57V16.0059H451.708C453.34 16.0059 454.606 16.4365 455.509 17.2979C456.411 18.1592 456.862 19.3623 456.862 20.9072ZM454.661 20.9619C454.661 18.8154 453.713 17.7422 451.817 17.7422H450.689V24.25H451.599C453.64 24.25 454.661 23.154 454.661 20.9619ZM465.052 26L464.327 23.6211H460.684L459.959 26H457.676L461.203 15.9648H463.794L467.335 26H465.052ZM463.821 21.8438C463.151 19.6882 462.773 18.4691 462.687 18.1865C462.604 17.904 462.545 17.6807 462.509 17.5166C462.358 18.0999 461.928 19.5423 461.217 21.8438H463.821ZM471.71 20.1211L473.795 16.0059H476.078L472.763 22.1104V26H470.657V22.1787L467.342 16.0059H469.639L471.71 20.1211Z" fill="black" />
            </svg>