<svg width="169" height="123" viewBox="0 0 169 123" fill="none" xmlns="http://www.w3.org/2000/svg">
  <path fill-rule="evenodd" clip-rule="evenodd" d="M0 0L169 63.25L0 123V0Z" fill="#D72130"/>
  <path d="M19.3594 40.9531H20.1562C20.901 40.9531 21.4583 40.8073 21.8281 40.5156C22.1979 40.2188 22.3828 39.7891 22.3828 39.2266C22.3828 38.6589 22.2266 38.2396 21.9141 37.9688C21.6068 37.6979 21.1224 37.5625 20.4609 37.5625H19.3594V40.9531ZM24.8281 39.1406C24.8281 40.3698 24.4427 41.3099 23.6719 41.9609C22.9062 42.612 21.8151 42.9375 20.3984 42.9375H19.3594V47H16.9375V35.5781H20.5859C21.9714 35.5781 23.0234 35.8776 23.7422 36.4766C24.4661 37.0703 24.8281 37.9583 24.8281 39.1406ZM36.3438 47H33.9297V42.0703H29.4062V47H26.9844V35.5781H29.4062V40.0547H33.9297V35.5781H36.3438V47ZM49.6016 41.2734C49.6016 43.1641 49.1328 44.6172 48.1953 45.6328C47.2578 46.6484 45.9141 47.1562 44.1641 47.1562C42.4141 47.1562 41.0703 46.6484 40.1328 45.6328C39.1953 44.6172 38.7266 43.1589 38.7266 41.2578C38.7266 39.3568 39.1953 37.9062 40.1328 36.9062C41.0755 35.901 42.4245 35.3984 44.1797 35.3984C45.9349 35.3984 47.276 35.9036 48.2031 36.9141C49.1354 37.9245 49.6016 39.3776 49.6016 41.2734ZM41.2656 41.2734C41.2656 42.5495 41.5078 43.5104 41.9922 44.1562C42.4766 44.8021 43.2005 45.125 44.1641 45.125C46.0964 45.125 47.0625 43.8411 47.0625 41.2734C47.0625 38.7005 46.1016 37.4141 44.1797 37.4141C43.2161 37.4141 42.4896 37.7396 42 38.3906C41.5104 39.0365 41.2656 39.9974 41.2656 41.2734ZM56.375 47H53.9531V37.5938H50.8516V35.5781H59.4766V37.5938H56.375V47ZM71.6016 41.2734C71.6016 43.1641 71.1328 44.6172 70.1953 45.6328C69.2578 46.6484 67.9141 47.1562 66.1641 47.1562C64.4141 47.1562 63.0703 46.6484 62.1328 45.6328C61.1953 44.6172 60.7266 43.1589 60.7266 41.2578C60.7266 39.3568 61.1953 37.9062 62.1328 36.9062C63.0755 35.901 64.4245 35.3984 66.1797 35.3984C67.9349 35.3984 69.276 35.9036 70.2031 36.9141C71.1354 37.9245 71.6016 39.3776 71.6016 41.2734ZM63.2656 41.2734C63.2656 42.5495 63.5078 43.5104 63.9922 44.1562C64.4766 44.8021 65.2005 45.125 66.1641 45.125C68.0964 45.125 69.0625 43.8411 69.0625 41.2734C69.0625 38.7005 68.1016 37.4141 66.1797 37.4141C65.2161 37.4141 64.4896 37.7396 64 38.3906C63.5104 39.0365 63.2656 39.9974 63.2656 41.2734ZM21.644 57.352C19.916 57.352 18.572 57.928 17.58 59.08C16.636 60.168 16.172 61.576 16.172 63.304C16.172 65.016 16.636 66.424 17.58 67.512C18.572 68.648 19.916 69.224 21.628 69.224C23.34 69.224 24.7 68.648 25.692 67.512C26.62 66.424 27.1 65.032 27.1 63.304C27.1 61.56 26.62 60.152 25.692 59.064C24.7 57.912 23.34 57.352 21.644 57.352ZM21.644 58.52C22.956 58.52 23.98 58.952 24.716 59.832C25.42 60.696 25.788 61.848 25.788 63.304C25.788 64.744 25.42 65.88 24.716 66.744C23.98 67.608 22.94 68.056 21.628 68.056C20.316 68.056 19.276 67.608 18.54 66.712C17.836 65.848 17.484 64.712 17.484 63.304C17.484 61.88 17.836 60.744 18.54 59.88C19.292 58.968 20.332 58.52 21.644 58.52ZM28.9176 57.576V69H30.2296V63.688H36.2296V62.552H30.2296V58.712H36.5656V57.576H28.9176ZM42.6001 57.576V58.712H46.6321V69H47.9281V58.712H51.9601V57.576H42.6001ZM53.3864 57.576V69H54.6984V63.672H61.3064V69H62.6184V57.576H61.3064V62.536H54.6984V57.576H53.3864ZM64.902 57.576V69H73.27V67.864H66.214V63.672H72.614V62.536H66.214V58.712H72.998V57.576H64.902ZM26.4141 85.1797C26.4141 87.0599 25.8776 88.5 24.8047 89.5C23.737 90.5 22.1927 91 20.1719 91H16.9375V79.5781H20.5234C22.388 79.5781 23.8359 80.0703 24.8672 81.0547C25.8984 82.0391 26.4141 83.4141 26.4141 85.1797ZM23.8984 85.2422C23.8984 82.7891 22.8151 81.5625 20.6484 81.5625H19.3594V89H20.3984C22.7318 89 23.8984 87.7474 23.8984 85.2422ZM35.7734 91L34.9453 88.2812H30.7812L29.9531 91H27.3438L31.375 79.5312H34.3359L38.3828 91H35.7734ZM34.3672 86.25C33.6016 83.7865 33.1693 82.3932 33.0703 82.0703C32.9766 81.7474 32.9089 81.4922 32.8672 81.3047C32.6953 81.9714 32.2031 83.6198 31.3906 86.25H34.3672ZM43.3828 84.2812L45.7656 79.5781H48.375L44.5859 86.5547V91H42.1797V86.6328L38.3906 79.5781H41.0156L43.3828 84.2812Z" fill="white"/>
</svg>
