<svg width="29" height="30" viewBox="0 0 29 30" fill="none" xmlns="http://www.w3.org/2000/svg">
                <path fill-rule="evenodd" clip-rule="evenodd" d="M17 15.8199L12.1903 20.8183L17 15.8199L12.1903 10.8214L17 15.8199Z" stroke="#979797" stroke-linejoin="round" />
                <path fill-rule="evenodd" clip-rule="evenodd" d="M29 15.32C29 7.31439 22.5081 0.824524 14.5 0.824524C6.49187 0.824524 0 7.31439 0 15.32C0 23.3257 6.49187 29.8156 14.5 29.8156C22.5081 29.8156 29 23.3257 29 15.32ZM1 15.32C1 7.8665 7.04416 1.82421 14.5 1.82421C21.9558 1.82421 28 7.8665 28 15.32C28 22.7736 21.9558 28.8159 14.5 28.8159C7.04416 28.8159 1 22.7736 1 15.32Z" fill="#979797" />
            </svg>